<?xml version="1.0" encoding="UTF-8" standalone="no"?>
<!-- Created with Inkscape (http://www.inkscape.org/) -->

<svg
   xmlns:dc="http://purl.org/dc/elements/1.1/"
   xmlns:cc="http://creativecommons.org/ns#"
   xmlns:rdf="http://www.w3.org/1999/02/22-rdf-syntax-ns#"
   xmlns:svg="http://www.w3.org/2000/svg"
   xmlns="http://www.w3.org/2000/svg"
   xmlns:sodipodi="http://sodipodi.sourceforge.net/DTD/sodipodi-0.dtd"
   xmlns:inkscape="http://www.inkscape.org/namespaces/inkscape"
   width="48"
   height="48"
   viewBox="0 0 12.7 12.7"
   version="1.1"
   id="svg3771"
   inkscape:version="0.92.2 2405546, 2018-03-11"
   sodipodi:docname="next.svg">
  <defs
     id="defs3765" />
  <sodipodi:namedview
     id="base"
     pagecolor="#ffffff"
     bordercolor="#666666"
     borderopacity="1.0"
     inkscape:pageopacity="0.0"
     inkscape:pageshadow="2"
     inkscape:zoom="13.657955"
     inkscape:cx="2.8021371"
     inkscape:cy="23.53093"
     inkscape:document-units="px"
     inkscape:current-layer="layer1"
     showgrid="false"
     inkscape:window-width="1857"
     inkscape:window-height="1009"
     inkscape:window-x="1087"
     inkscape:window-y="29"
     inkscape:window-maximized="1"
     units="px" />
  <metadata
     id="metadata3768">
    <rdf:RDF>
      <cc:Work
         rdf:about="">
        <dc:format>image/svg+xml</dc:format>
        <dc:type
           rdf:resource="http://purl.org/dc/dcmitype/StillImage" />
        <dc:title></dc:title>
      </cc:Work>
    </rdf:RDF>
  </metadata>
  <g
     inkscape:label="Layer 1"
     inkscape:groupmode="layer"
     id="layer1"
     transform="translate(0,-284.3)">
    <g
       id="g195"
       transform="matrix(0.99792044,0,0,1,3.1897272e-7,-4.4674013e-6)">
      <g
         inkscape:export-ydpi="96"
         inkscape:export-xdpi="96"
         inkscape:export-filename="/home/@home/jom/Programming/python-music/res/next.png"
         transform="matrix(-1.0031084,0,0,-1.0031084,12.728539,582.1009)"
         id="g3794">
        <path
           sodipodi:type="star"
           style="fill:#333333;stroke-width:0.26458332"
           id="path3773-3"
           sodipodi:sides="3"
           sodipodi:cx="3.5644674"
           sodipodi:cy="290.14227"
           sodipodi:r1="3.1973951"
           sodipodi:r2="1.6946194"
           sodipodi:arg1="-1.001279"
           sodipodi:arg2="0.045918539"
           inkscape:flatsided="false"
           inkscape:rounded="0.15"
           inkscape:randomized="0"
           d="m 5.2885848,287.44955 c 0.3500047,0.2241 -0.012207,2.35535 -0.031284,2.77051 -0.019077,0.41516 0.1461562,2.57064 -0.2229257,2.7617 -0.3690819,0.19106 -2.0336849,-1.18824 -2.3836897,-1.41234 -0.3500047,-0.22411 -2.29931975,-1.15875 -2.28024257,-1.57392 0.0190772,-0.41516 2.04589187,-1.1671 2.41497387,-1.35816 0.3690819,-0.19106 2.1531635,-1.41189 2.5031683,-1.18779 z"
           inkscape:transform-center-x="0.60982429"
           inkscape:transform-center-y="-0.032771064"
           transform="matrix(1.4254959,-0.06849476,0.06849476,1.4254959,-14.822364,-122.80023)" />
        <path
           transform="matrix(1.4254959,-0.06849476,0.06849476,1.4254959,-20.362786,-122.80023)"
           inkscape:transform-center-y="-0.032771064"
           inkscape:transform-center-x="0.60982429"
           d="m 5.2885848,287.44955 c 0.3500047,0.2241 -0.012207,2.35535 -0.031284,2.77051 -0.019077,0.41516 0.1461562,2.57064 -0.2229257,2.7617 -0.3690819,0.19106 -2.0336849,-1.18824 -2.3836897,-1.41234 -0.3500047,-0.22411 -2.29931975,-1.15875 -2.28024257,-1.57392 0.0190772,-0.41516 2.04589187,-1.1671 2.41497387,-1.35816 0.3690819,-0.19106 2.1531635,-1.41189 2.5031683,-1.18779 z"
           inkscape:randomized="0"
           inkscape:rounded="0.15"
           inkscape:flatsided="false"
           sodipodi:arg2="0.045918539"
           sodipodi:arg1="-1.001279"
           sodipodi:r2="1.6946194"
           sodipodi:r1="3.1973951"
           sodipodi:cy="290.14227"
           sodipodi:cx="3.5644674"
           sodipodi:sides="3"
           id="path3790"
           style="fill:#333333;stroke-width:0.26458332"
           sodipodi:type="star" />
      </g>
      <path
         transform="matrix(0.67875471,-2.5116002,0.73436506,2.3214074,-197.30875,-395.36469)"
         d="m -5.6179099,291.11088 c -0.089957,-0.004 -0.7337553,-0.73114 -0.7942616,-0.79785 -0.060506,-0.0667 -0.7211507,-0.77819 -0.7167626,-0.86815 0.00439,-0.09 0.7311435,-0.73375 0.7978556,-0.79426 0.066712,-0.0605 0.7781884,-0.72115 0.8681455,-0.71676 0.089957,0.004 0.7337552,0.73114 0.7942615,0.79785 0.060506,0.0667 0.7211507,0.77819 0.7167626,0.86815 -0.00439,0.09 -0.7311434,0.73375 -0.7978555,0.79426 -0.066712,0.0605 -0.7781885,0.72115 -0.8681455,0.71676 z"
         inkscape:randomized="0"
         inkscape:rounded="0.08"
         inkscape:flatsided="false"
         sodipodi:arg2="2.4049363"
         sodipodi:arg1="1.6195382"
         sodipodi:r2="1.176897"
         sodipodi:r1="1.5904014"
         sodipodi:cy="289.52237"
         sodipodi:cx="-5.5404215"
         sodipodi:sides="4"
         id="path189"
         style="fill:#333333;stroke:none;stroke-width:0.26458332"
         sodipodi:type="star" />
    </g>
  </g>
</svg>
