<?xml version="1.0" encoding="UTF-8" standalone="no"?>
<!-- Created with Inkscape (http://www.inkscape.org/) -->

<svg
   xmlns:dc="http://purl.org/dc/elements/1.1/"
   xmlns:cc="http://creativecommons.org/ns#"
   xmlns:rdf="http://www.w3.org/1999/02/22-rdf-syntax-ns#"
   xmlns:svg="http://www.w3.org/2000/svg"
   xmlns="http://www.w3.org/2000/svg"
   xmlns:sodipodi="http://sodipodi.sourceforge.net/DTD/sodipodi-0.dtd"
   xmlns:inkscape="http://www.inkscape.org/namespaces/inkscape"
   width="48"
   height="48"
   viewBox="0 0 12.7 12.7"
   version="1.1"
   id="svg3920"
   inkscape:version="0.92.2 2405546, 2018-03-11"
   sodipodi:docname="pause.svg">
  <defs
     id="defs3914" />
  <sodipodi:namedview
     id="base"
     pagecolor="#ffffff"
     bordercolor="#666666"
     borderopacity="1.0"
     inkscape:pageopacity="0.0"
     inkscape:pageshadow="2"
     inkscape:zoom="7.9195959"
     inkscape:cx="15.912608"
     inkscape:cy="24.121109"
     inkscape:document-units="px"
     inkscape:current-layer="layer1"
     showgrid="false"
     units="px"
     inkscape:window-width="1841"
     inkscape:window-height="1009"
     inkscape:window-x="1103"
     inkscape:window-y="29"
     inkscape:window-maximized="1" />
  <metadata
     id="metadata3917">
    <rdf:RDF>
      <cc:Work
         rdf:about="">
        <dc:format>image/svg+xml</dc:format>
        <dc:type
           rdf:resource="http://purl.org/dc/dcmitype/StillImage" />
        <dc:title></dc:title>
      </cc:Work>
    </rdf:RDF>
  </metadata>
  <g
     inkscape:label="Layer 1"
     inkscape:groupmode="layer"
     id="layer1"
     transform="translate(0,-284.3)">
    <g
       id="g3928"
       transform="matrix(1.0033771,0,0,1,-0.03585538,0.00231714)">
      <path
         transform="matrix(0.44293719,-0.94082329,0.42534513,0.97973526,-118.35377,11.993148)"
         d="m 3.6468924,287.92821 c -0.4576093,0.47534 -2.5349889,3.01125 -3.19468789,3.02379 -0.65969902,0.0125 -2.83196491,-2.44257 -3.30731101,-2.90018 -0.475346,-0.45761 -3.0112482,-2.53499 -3.02379,-3.19469 -0.012542,-0.6597 2.4425687,-2.83196 2.9001779,-3.30731 0.4576093,-0.47535 2.53498887,-3.01125 3.19468788,-3.02379 0.65969902,-0.0125 2.83196492,2.44257 3.30731102,2.90018 0.475346,0.45761 3.0112482,2.53499 3.02379,3.19469 0.012542,0.6597 -2.4425687,2.83196 -2.9001779,3.30731 z"
         inkscape:randomized="0"
         inkscape:rounded="0.15"
         inkscape:flatsided="false"
         sodipodi:arg2="1.5517872"
         sodipodi:arg1="0.76638905"
         sodipodi:r2="6.2141061"
         sodipodi:r1="4.5984383"
         sodipodi:cy="284.73901"
         sodipodi:cx="0.33408689"
         sodipodi:sides="4"
         id="path3922"
         style="fill:#333333;stroke-width:0.26458332"
         sodipodi:type="star" />
      <path
         sodipodi:type="star"
         style="fill:#333333;stroke-width:0.26458332"
         id="path3924"
         sodipodi:sides="4"
         sodipodi:cx="0.33408689"
         sodipodi:cy="284.73901"
         sodipodi:r1="4.5984383"
         sodipodi:r2="6.2141061"
         sodipodi:arg1="0.76638905"
         sodipodi:arg2="1.5517872"
         inkscape:flatsided="false"
         inkscape:rounded="0.15"
         inkscape:randomized="0"
         d="m 3.6468924,287.92821 c -0.4576093,0.47534 -2.5349889,3.01125 -3.19468789,3.02379 -0.65969902,0.0125 -2.83196491,-2.44257 -3.30731101,-2.90018 -0.475346,-0.45761 -3.0112482,-2.53499 -3.02379,-3.19469 -0.012542,-0.6597 2.4425687,-2.83196 2.9001779,-3.30731 0.4576093,-0.47535 2.53498887,-3.01125 3.19468788,-3.02379 0.65969902,-0.0125 2.83196492,2.44257 3.30731102,2.90018 0.475346,0.45761 3.0112482,2.53499 3.02379,3.19469 0.012542,0.6597 -2.4425687,2.83196 -2.9001779,3.30731 z"
         transform="matrix(0.44293719,-0.94082329,0.42534513,0.97973526,-111.43817,11.993148)" />
    </g>
  </g>
</svg>
